<svg viewBox="0 0 312 642" xmlns="http://www.w3.org/2000/svg" xmlns:xlink="http://www.w3.org/1999/xlink" width="312.000000" height="642.000000" fill="none" customFrame="#000000">
	<mask id="mask_13" width="280.000000" height="606.000000" x="16.000000" y="19.000000" maskUnits="userSpaceOnUse">
		<g filter="url(#pixso_custom_mask_type_alpha)">
			<path id="path-32" d="M16 600.954L16 42.9744C16.2019 42.2461 16.4884 41.5297 16.5904 40.7878C16.9498 38.1729 17.6365 35.655 18.7895 33.2854C22.567 25.5217 28.9757 21.295 37.2693 19.6581C38.7017 19.3755 40.1583 19.2163 41.6038 19L82.3072 19C82.433 19.0933 82.546 19.2197 82.6866 19.2749C84.8145 20.1066 85.6112 21.2211 85.6562 23.4607C85.6662 23.9532 85.6557 24.4458 85.6596 24.9384C85.7093 31.1708 88.9466 35.8368 94.7681 38.0298C97.4098 39.0249 100.156 39.3728 102.973 39.3718C138.365 39.3595 173.757 39.3639 209.148 39.3636C209.86 39.3636 210.572 39.3863 211.281 39.3497C214.26 39.1964 217.137 38.6135 219.794 37.1961C223.709 35.1077 226.183 31.9426 226.817 27.495C227.016 26.0951 227.012 24.6634 227.054 23.2448C227.1 21.7045 227.698 20.4825 229.033 19.6938C229.541 19.3939 230.127 19.2273 230.678 19L270.724 19C271.198 19.0956 271.669 19.1989 272.144 19.2851C274.122 19.644 276.149 19.8306 278.071 20.3816C288.182 23.2801 294.741 31.2102 295.726 41.5566C295.761 41.9251 295.906 42.2831 296 42.646L296 601.282C295.867 602.3 295.781 603.326 295.594 604.333C293.871 613.621 288.877 620.22 279.801 623.404C276.412 624.594 272.886 624.993 269.31 624.993C193.867 625 118.424 625 42.9806 625C42.6524 625 42.3238 625 41.9958 624.994C38.5359 624.866 35.1178 624.436 31.8714 623.181C22.9051 619.714 18.1328 612.951 16.6412 603.633C16.4965 602.729 16.217 601.846 16 600.954Z" fill="rgb(252,250,249)" fill-rule="evenodd" />
		</g>
	</mask>
	<mask id="mask_12" width="280.000000" height="606.000000" x="16.000000" y="19.000000" maskUnits="userSpaceOnUse">
		<g filter="url(#pixso_custom_mask_type_alpha)">
			<path id="path-32" d="M16 600.954L16 42.9744C16.2019 42.2461 16.4884 41.5297 16.5904 40.7878C16.9498 38.1729 17.6365 35.655 18.7895 33.2854C22.567 25.5217 28.9757 21.295 37.2693 19.6581C38.7017 19.3755 40.1583 19.2163 41.6038 19L82.3072 19C82.433 19.0933 82.546 19.2197 82.6866 19.2749C84.8145 20.1066 85.6112 21.2211 85.6562 23.4607C85.6662 23.9532 85.6557 24.4458 85.6596 24.9384C85.7093 31.1708 88.9466 35.8368 94.7681 38.0298C97.4098 39.0249 100.156 39.3728 102.973 39.3718C138.365 39.3595 173.757 39.3639 209.148 39.3636C209.86 39.3636 210.572 39.3863 211.281 39.3497C214.26 39.1964 217.137 38.6135 219.794 37.1961C223.709 35.1077 226.183 31.9426 226.817 27.495C227.016 26.0951 227.012 24.6634 227.054 23.2448C227.1 21.7045 227.698 20.4825 229.033 19.6938C229.541 19.3939 230.127 19.2273 230.678 19L270.724 19C271.198 19.0956 271.669 19.1989 272.144 19.2851C274.122 19.644 276.149 19.8306 278.071 20.3816C288.182 23.2801 294.741 31.2102 295.726 41.5566C295.761 41.9251 295.906 42.2831 296 42.646L296 601.282C295.867 602.3 295.781 603.326 295.594 604.333C293.871 613.621 288.877 620.22 279.801 623.404C276.412 624.594 272.886 624.993 269.31 624.993C193.867 625 118.424 625 42.9806 625C42.6524 625 42.3238 625 41.9958 624.994C38.5359 624.866 35.1178 624.436 31.8714 623.181C22.9051 619.714 18.1328 612.951 16.6412 603.633C16.4965 602.729 16.217 601.846 16 600.954Z" fill="rgb(0,0,0)" fill-rule="evenodd" />
		</g>
	</mask>
	<mask id="mask_11" width="5.869565" height="5.400000" x="183.271484" y="22.050415" maskUnits="userSpaceOnUse">
		<g filter="url(#pixso_custom_mask_type_alpha)">
			<path id="path-28" d="M186.206 27.4504C187.827 27.4504 189.141 26.2416 189.141 24.7504C189.141 23.2592 187.827 22.0504 186.206 22.0504C184.585 22.0504 183.271 23.2592 183.271 24.7504C183.271 26.2416 184.585 27.4504 186.206 27.4504Z" fill="rgb(0,0,0)" fill-rule="evenodd" />
		</g>
	</mask>
	<mask id="mask_10" width="5.869565" height="5.400000" x="183.271484" y="22.050415" maskUnits="userSpaceOnUse">
		<g filter="url(#pixso_custom_mask_type_alpha)">
			<path id="path-28" d="M186.206 27.4504C187.827 27.4504 189.141 26.2416 189.141 24.7504C189.141 23.2592 187.827 22.0504 186.206 22.0504C184.585 22.0504 183.271 23.2592 183.271 24.7504C183.271 26.2416 184.585 27.4504 186.206 27.4504Z" fill="rgb(0,0,0)" fill-rule="evenodd" />
		</g>
	</mask>
	<mask id="mask_9" width="312.000000" height="642.000000" x="0.000000" y="0.000000" maskUnits="userSpaceOnUse">
		<g filter="url(#pixso_custom_mask_type_alpha)">
			<path id="path-16" d="M277.802 0C296.689 -3.47302e-15 312 15.3265 312 34.2328L312 607.767C312 626.673 296.689 642 277.802 642L169.682 642C169.607 641.94 169.52 641.896 169.423 641.871L168.472 641.633C168.418 641.619 168.363 641.613 168.308 641.613L140.208 641.613C140.163 641.613 140.119 641.617 140.076 641.626L138.739 641.892C138.645 641.91 138.559 641.948 138.484 642L34.1977 642C15.3108 642 2.31298e-15 626.673 0 607.767L0 34.2328C-2.31298e-15 15.3265 15.3108 3.47302e-15 34.1977 0L277.802 0Z" fill="rgb(0,0,0)" fill-rule="evenodd" />
		</g>
	</mask>
	<mask id="mask_8" width="312.000000" height="642.000000" x="0.000000" y="0.000000" maskUnits="userSpaceOnUse">
		<g filter="url(#pixso_custom_mask_type_alpha)">
			<path id="path-16" d="M277.802 0C296.689 -3.47302e-15 312 15.3265 312 34.2328L312 607.767C312 626.673 296.689 642 277.802 642L169.682 642C169.607 641.94 169.52 641.896 169.423 641.871L168.472 641.633C168.418 641.619 168.363 641.613 168.308 641.613L140.208 641.613C140.163 641.613 140.119 641.617 140.076 641.626L138.739 641.892C138.645 641.91 138.559 641.948 138.484 642L34.1977 642C15.3108 642 2.31298e-15 626.673 0 607.767L0 34.2328C-2.31298e-15 15.3265 15.3108 3.47302e-15 34.1977 0L277.802 0Z" fill="rgb(0,0,0)" fill-rule="evenodd" />
		</g>
	</mask>
	<mask id="mask_7" width="312.000000" height="642.000000" x="0.000000" y="0.000000" maskUnits="userSpaceOnUse">
		<g filter="url(#pixso_custom_mask_type_alpha)">
			<path id="path-16" d="M277.802 0C296.689 -3.47302e-15 312 15.3265 312 34.2328L312 607.767C312 626.673 296.689 642 277.802 642L169.682 642C169.607 641.94 169.52 641.896 169.423 641.871L168.472 641.633C168.418 641.619 168.363 641.613 168.308 641.613L140.208 641.613C140.163 641.613 140.119 641.617 140.076 641.626L138.739 641.892C138.645 641.91 138.559 641.948 138.484 642L34.1977 642C15.3108 642 2.31298e-15 626.673 0 607.767L0 34.2328C-2.31298e-15 15.3265 15.3108 3.47302e-15 34.1977 0L277.802 0Z" fill="rgb(0,0,0)" fill-rule="evenodd" />
		</g>
	</mask>
	<mask id="mask_6" width="312.000000" height="642.000000" x="0.000000" y="0.000000" maskUnits="userSpaceOnUse">
		<g filter="url(#pixso_custom_mask_type_alpha)">
			<path id="path-16" d="M277.802 0C296.689 -3.47302e-15 312 15.3265 312 34.2328L312 607.767C312 626.673 296.689 642 277.802 642L169.682 642C169.607 641.94 169.52 641.896 169.423 641.871L168.472 641.633C168.418 641.619 168.363 641.613 168.308 641.613L140.208 641.613C140.163 641.613 140.119 641.617 140.076 641.626L138.739 641.892C138.645 641.91 138.559 641.948 138.484 642L34.1977 642C15.3108 642 2.31298e-15 626.673 0 607.767L0 34.2328C-2.31298e-15 15.3265 15.3108 3.47302e-15 34.1977 0L277.802 0Z" fill="rgb(0,0,0)" fill-rule="evenodd" />
		</g>
	</mask>
	<mask id="mask_5" width="312.000000" height="642.000000" x="0.000000" y="0.000000" maskUnits="userSpaceOnUse">
		<g filter="url(#pixso_custom_mask_type_alpha)">
			<path id="path-16" d="M277.802 0C296.689 -3.47302e-15 312 15.3265 312 34.2328L312 607.767C312 626.673 296.689 642 277.802 642L169.682 642C169.607 641.94 169.52 641.896 169.423 641.871L168.472 641.633C168.418 641.619 168.363 641.613 168.308 641.613L140.208 641.613C140.163 641.613 140.119 641.617 140.076 641.626L138.739 641.892C138.645 641.91 138.559 641.948 138.484 642L34.1977 642C15.3108 642 2.31298e-15 626.673 0 607.767L0 34.2328C-2.31298e-15 15.3265 15.3108 3.47302e-15 34.1977 0L277.802 0Z" fill="rgb(0,0,0)" fill-rule="evenodd" />
		</g>
	</mask>
	<mask id="mask_4" width="312.000000" height="642.000000" x="0.000000" y="0.000000" maskUnits="userSpaceOnUse">
		<g filter="url(#pixso_custom_mask_type_alpha)">
			<path id="path-16" d="M277.802 0C296.689 -3.47302e-15 312 15.3265 312 34.2328L312 607.767C312 626.673 296.689 642 277.802 642L169.682 642C169.607 641.94 169.52 641.896 169.423 641.871L168.472 641.633C168.418 641.619 168.363 641.613 168.308 641.613L140.208 641.613C140.163 641.613 140.119 641.617 140.076 641.626L138.739 641.892C138.645 641.91 138.559 641.948 138.484 642L34.1977 642C15.3108 642 2.31298e-15 626.673 0 607.767L0 34.2328C-2.31298e-15 15.3265 15.3108 3.47302e-15 34.1977 0L277.802 0Z" fill="rgb(0,0,0)" fill-rule="evenodd" />
		</g>
	</mask>
	<mask id="mask_3" width="312.000000" height="642.000000" x="0.000000" y="0.000000" maskUnits="userSpaceOnUse">
		<g filter="url(#pixso_custom_mask_type_alpha)">
			<path id="path-16" d="M277.802 0C296.689 -3.47302e-15 312 15.3265 312 34.2328L312 607.767C312 626.673 296.689 642 277.802 642L169.682 642C169.607 641.94 169.52 641.896 169.423 641.871L168.472 641.633C168.418 641.619 168.363 641.613 168.308 641.613L140.208 641.613C140.163 641.613 140.119 641.617 140.076 641.626L138.739 641.892C138.645 641.91 138.559 641.948 138.484 642L34.1977 642C15.3108 642 2.31298e-15 626.673 0 607.767L0 34.2328C-2.31298e-15 15.3265 15.3108 3.47302e-15 34.1977 0L277.802 0Z" fill="rgb(0,0,0)" fill-rule="evenodd" />
		</g>
	</mask>
	<mask id="mask_2" width="312.000000" height="642.000000" x="0.000000" y="0.000000" maskUnits="userSpaceOnUse">
		<g filter="url(#pixso_custom_mask_type_alpha)">
			<path id="path-16" d="M277.802 0C296.689 -3.47302e-15 312 15.3265 312 34.2328L312 607.767C312 626.673 296.689 642 277.802 642L169.682 642C169.607 641.94 169.52 641.896 169.423 641.871L168.472 641.633C168.418 641.619 168.363 641.613 168.308 641.613L140.208 641.613C140.163 641.613 140.119 641.617 140.076 641.626L138.739 641.892C138.645 641.91 138.559 641.948 138.484 642L34.1977 642C15.3108 642 2.31298e-15 626.673 0 607.767L0 34.2328C-2.31298e-15 15.3265 15.3108 3.47302e-15 34.1977 0L277.802 0Z" fill="rgb(0,0,0)" fill-rule="evenodd" />
		</g>
	</mask>
	<mask id="mask_1" width="312.000000" height="642.000000" x="0.000000" y="0.000000" maskUnits="userSpaceOnUse">
		<g filter="url(#pixso_custom_mask_type_alpha)">
			<path id="path-16" d="M277.802 0C296.689 -3.47302e-15 312 15.3265 312 34.2328L312 607.767C312 626.673 296.689 642 277.802 642L169.682 642C169.607 641.94 169.52 641.896 169.423 641.871L168.472 641.633C168.418 641.619 168.363 641.613 168.308 641.613L140.208 641.613C140.163 641.613 140.119 641.617 140.076 641.626L138.739 641.892C138.645 641.91 138.559 641.948 138.484 642L34.1977 642C15.3108 642 2.31298e-15 626.673 0 607.767L0 34.2328C-2.31298e-15 15.3265 15.3108 3.47302e-15 34.1977 0L277.802 0Z" fill="rgb(0,0,0)" fill-rule="evenodd" />
		</g>
	</mask>
	<defs>
		<filter id="pixso_custom_mask_type_alpha">
			<feColorMatrix type="matrix" values="0 0 0 0 1 0 0 0 0 1 0 0 0 0 1 0 0 0 1 0 " />
		</filter>
		<linearGradient id="paint_linear_0" x1="4.64903736" x2="0" y1="0" y2="0" gradientUnits="userSpaceOnUse">
			<stop stop-color="rgb(53,70,64)" offset="0" stop-opacity="1" />
			<stop stop-color="rgb(53,70,64)" offset="1" stop-opacity="0.426054418" />
		</linearGradient>
		<linearGradient id="paint_linear_1" x1="312.387115" x2="307.741943" y1="56.1798706" y2="56.1798706" gradientUnits="userSpaceOnUse">
			<stop stop-color="rgb(53,70,64)" offset="0" stop-opacity="1" />
			<stop stop-color="rgb(53,70,64)" offset="1" stop-opacity="0.426054418" />
		</linearGradient>
		<linearGradient id="paint_linear_2" x1="4.64907646" x2="0" y1="0" y2="0" gradientUnits="userSpaceOnUse">
			<stop stop-color="rgb(53,70,64)" offset="0" stop-opacity="1" />
			<stop stop-color="rgb(53,70,64)" offset="1" stop-opacity="0.426054418" />
		</linearGradient>
		<linearGradient id="paint_linear_3" x1="4.64516115" x2="0" y1="0" y2="0" gradientUnits="userSpaceOnUse">
			<stop stop-color="rgb(53,70,64)" offset="0" stop-opacity="1" />
			<stop stop-color="rgb(53,70,64)" offset="1" stop-opacity="0.426054418" />
		</linearGradient>
		<linearGradient id="paint_linear_4" x1="312.387115" x2="307.741943" y1="581.558228" y2="581.558228" gradientUnits="userSpaceOnUse">
			<stop stop-color="rgb(53,70,64)" offset="0" stop-opacity="1" />
			<stop stop-color="rgb(53,70,64)" offset="1" stop-opacity="0.426054418" />
		</linearGradient>
		<linearGradient id="paint_linear_5" x1="4.64516115" x2="0" y1="0" y2="0" gradientUnits="userSpaceOnUse">
			<stop stop-color="rgb(53,70,64)" offset="0" stop-opacity="1" />
			<stop stop-color="rgb(53,70,64)" offset="1" stop-opacity="0.426054418" />
		</linearGradient>
		<linearGradient id="paint_linear_6" x1="13.4875031" x2="8" y1="230.005066" y2="230.005066" gradientUnits="userSpaceOnUse">
			<stop stop-color="rgb(58,58,58)" offset="0" stop-opacity="1" />
			<stop stop-color="rgb(184,184,184)" offset="1" stop-opacity="1" />
		</linearGradient>
		<linearGradient id="paint_linear_7" x1="5.48750257" x2="0" y1="216.361938" y2="216.361938" gradientUnits="userSpaceOnUse">
			<stop stop-color="rgb(58,58,58)" offset="0" stop-opacity="1" />
			<stop stop-color="rgb(184,184,184)" offset="1" stop-opacity="1" />
		</linearGradient>
		<radialGradient id="paint_radial_0" cx="0" cy="0" r="1" gradientUnits="userSpaceOnUse" gradientTransform="matrix(0,23.9411,-261.946,0,155.621,9)">
			<stop stop-color="rgb(238,238,238)" offset="0" stop-opacity="0.163637906" />
			<stop stop-color="rgb(0,0,0)" offset="1" stop-opacity="9.99999975e-05" />
		</radialGradient>
		<radialGradient id="paint_radial_1" cx="0" cy="0" r="1" gradientUnits="userSpaceOnUse" gradientTransform="matrix(0,23.9411,-261.946,0,130.973,0)">
			<stop stop-color="rgb(238,238,238)" offset="0" stop-opacity="0.163637906" />
			<stop stop-color="rgb(0,0,0)" offset="1" stop-opacity="9.99999975e-05" />
		</radialGradient>
		<clipPath id="clipPath_0">
			<rect width="216.000000" height="46.000000" x="48.000000" y="541.500000" fill="rgb(255,255,255)" />
		</clipPath>
		<clipPath id="clipPath_1">
			<rect width="369.000000" height="208.000000" x="-29.000000" y="293.000000" fill="rgb(255,255,255)" />
		</clipPath>
		<clipPath id="clipPath_2">
			<rect width="66.000000" height="102.000000" x="123.000000" y="311.000000" fill="rgb(255,255,255)" />
		</clipPath>
	</defs>
	<mask id="mask_0" width="312.000000" height="642.000000" x="0.000000" y="0.000000" maskUnits="userSpaceOnUse">
		<g filter="url(#pixso_custom_mask_type_alpha)">
			<path id="path-16" d="M277.802 0C296.689 -3.47302e-15 312 15.3265 312 34.2328L312 607.767C312 626.673 296.689 642 277.802 642L169.682 642C169.607 641.94 169.52 641.896 169.423 641.871L168.472 641.633C168.418 641.619 168.363 641.613 168.308 641.613L140.208 641.613C140.163 641.613 140.119 641.617 140.076 641.626L138.739 641.892C138.645 641.91 138.559 641.948 138.484 642L34.1977 642C15.3108 642 2.31298e-15 626.673 0 607.767L0 34.2328C-2.31298e-15 15.3265 15.3108 3.47302e-15 34.1977 0L277.802 0Z" fill="rgb(0,0,0)" fill-rule="evenodd" />
		</g>
	</mask>
	<g id="Group-5">
		<g id="Group-6">
			<g id="Combined-Shape">
				<g id="path-16-link">
					<path id="path-16" d="M277.802 0C296.689 -3.47302e-15 312 15.3265 312 34.2328L312 607.767C312 626.673 296.689 642 277.802 642L169.682 642C169.607 641.94 169.52 641.896 169.423 641.871L168.472 641.633C168.418 641.619 168.363 641.613 168.308 641.613L140.208 641.613C140.163 641.613 140.119 641.617 140.076 641.626L138.739 641.892C138.645 641.91 138.559 641.948 138.484 642L34.1977 642C15.3108 642 2.31298e-15 626.673 0 607.767L0 34.2328C-2.31298e-15 15.3265 15.3108 3.47302e-15 34.1977 0L277.802 0Z" fill="rgb(255,255,255)" fill-rule="evenodd" />
				</g>
				<g id="path-16-link">
					<path id="path-16" d="M277.802 0C296.689 -3.47302e-15 312 15.3265 312 34.2328L312 607.767C312 626.673 296.689 642 277.802 642L169.682 642C169.607 641.94 169.52 641.896 169.423 641.871L168.472 641.633C168.418 641.619 168.363 641.613 168.308 641.613L140.208 641.613C140.163 641.613 140.119 641.617 140.076 641.626L138.739 641.892C138.645 641.91 138.559 641.948 138.484 642L34.1977 642C15.3108 642 2.31298e-15 626.673 0 607.767L0 34.2328C-2.31298e-15 15.3265 15.3108 3.47302e-15 34.1977 0L277.802 0Z" fill="rgb(0,0,0)" fill-rule="nonzero" />
				</g>
			</g>
			<g id="Group-9 Clipped" mask="url(#mask_0)">
				<g id="Group-9">
					<g id="Group">
						<g style="mix-blend-mode:overlay">
							<path id="Path-3" d="M269.032 635.333L269.788 633.549C285.642 640.28 304.207 632.035 326.039 609.842L327.418 611.201C305.09 633.899 285.817 642.458 269.032 635.333Z" fill="rgb(0,0,0)" fill-rule="nonzero" />
						</g>
						<g style="mix-blend-mode:overlay">
							<path id="Path-3-Copy" d="M0 25.4909L0.755723 23.7074C16.6102 30.4377 35.1752 22.1933 57.0066 0L58.3857 1.35915C36.0579 24.0573 16.7847 32.6161 0 25.4909Z" fill="rgb(0,0,0)" fill-rule="nonzero" transform="matrix(-1,0,0,1,45.2245,609.842)" />
						</g>
					</g>
				</g>
			</g>
			<g id="Group-9-Copy Clipped" mask="url(#mask_1)">
				<g id="Group-9-Copy">
					<g id="Group">
						<g style="mix-blend-mode:overlay">
							<path id="Path-3" d="M0 25.4909L0.755723 23.7074C16.6102 30.4377 35.1752 22.1933 57.0066 0L58.3858 1.35915C36.0579 24.0573 16.7847 32.6161 0 25.4909Z" fill="rgb(0,0,0)" fill-rule="nonzero" transform="matrix(1,-1.22465e-16,-1.22465e-16,-1,269.032,36.8075)" />
						</g>
						<g style="mix-blend-mode:overlay">
							<path id="Path-3-Copy" d="M0 25.4909L0.755723 23.7074C16.6102 30.4377 35.1752 22.1933 57.0066 0L58.3857 1.35915C36.0579 24.0573 16.7847 32.6161 0 25.4909Z" fill="rgb(0,0,0)" fill-rule="nonzero" transform="matrix(-1,1.22465e-16,-1.22465e-16,-1,45.2245,36.8075)" />
						</g>
					</g>
				</g>
			</g>
			<g id="Rectangle-6-Copy Clipped" mask="url(#mask_2)">
				<path id="Rectangle-6-Copy" d="M-4.12917e-15 0L4.64904 0L4.64904 3.097L-4.12917e-15 3.097L-4.12917e-15 0Z" fill="url(#paint_linear_0)" fill-rule="nonzero" transform="matrix(-3.82857e-16,1,-1,-3.82857e-16,63.484,636.963)" />
			</g>
			<g id="Rectangle-6 Clipped" mask="url(#mask_3)">
				<path id="Rectangle-6" d="M307.742 56.1799L312.387 56.1799L312.387 59.2794L307.742 59.2794L307.742 56.1799Z" fill="url(#paint_linear_1)" fill-rule="nonzero" />
			</g>
			<g id="Rectangle-6-Copy-4 Clipped" mask="url(#mask_4)">
				<path id="Rectangle-6-Copy-4" d="M0 0L4.64908 0L4.64908 3.09699L0 3.09699L0 0Z" fill="url(#paint_linear_2)" fill-rule="nonzero" transform="matrix(6.12323e-17,-1,1,6.12323e-17,256.645,4.64923)" />
			</g>
			<g id="Rectangle-6-Copy-3 Clipped" mask="url(#mask_5)">
				<path id="Rectangle-6-Copy-3" d="M0 0L4.64516 0L4.64516 3.09958L0 3.09958L0 0Z" fill="url(#paint_linear_3)" fill-rule="nonzero" transform="matrix(-1,0,0,1,4.64514,56.1799)" />
			</g>
			<g id="Rectangle-6-Copy Clipped" mask="url(#mask_6)">
				<path id="Rectangle-6-Copy" d="M307.742 581.558L312.387 581.558L312.387 584.658L307.742 584.658L307.742 581.558Z" fill="url(#paint_linear_4)" fill-rule="nonzero" />
			</g>
			<g id="Rectangle-6-Copy-2 Clipped" mask="url(#mask_7)">
				<path id="Rectangle-6-Copy-2" d="M0 0L4.64516 0L4.64516 3.09958L0 3.09958L0 0Z" fill="url(#paint_linear_5)" fill-rule="nonzero" transform="matrix(-1,0,0,1,4.64514,581.558)" />
			</g>
			<g id="Rectangle-Copy Clipped" mask="url(#mask_8)">
				<rect id="Rectangle-Copy" width="303.870972" height="633.592407" x="3.870972" y="3.293274" rx="94.000000" fill="rgb(43,44,44)" />
			</g>
			<g id="Rectangle-Copy-2 Clipped" mask="url(#mask_9)">
				<path id="Rectangle-Copy-2" d="M264.184 5.90997C278.495 5.90997 283.685 7.39805 288.918 10.1991C294.142 12.9961 298.242 17.1005 301.036 22.3304C303.835 27.5679 305.321 32.7639 305.321 47.0892L305.321 593.361C305.321 607.686 303.835 612.882 301.036 618.12C298.242 623.35 294.142 627.454 288.918 630.251C283.685 633.052 278.495 634.54 264.184 634.54L47.4287 634.54C33.1182 634.54 27.9274 633.052 22.6953 630.251C17.4708 627.454 13.3706 623.35 10.5765 618.12C7.7783 612.882 6.29175 607.686 6.29175 593.361L6.29175 47.0892C6.29175 32.7639 7.7783 27.5679 10.5765 22.3304C13.3706 17.1005 17.4708 12.9961 22.6953 10.1991C27.9274 7.39805 33.1182 5.90997 47.4287 5.90997L264.184 5.90997Z" fill="rgb(3,3,3)" fill-rule="nonzero" />
				<path id="Rectangle-Copy-2" d="M288.918 10.1991C294.142 12.9961 298.242 17.1005 301.036 22.3304C303.835 27.5679 305.321 32.7639 305.321 47.0892L305.321 593.361C305.321 607.686 303.835 612.882 301.036 618.12C298.242 623.35 294.142 627.454 288.918 630.251C283.685 633.052 278.495 634.54 264.184 634.54L47.4287 634.54C33.1182 634.54 27.9274 633.052 22.6953 630.251C17.4708 627.454 13.3706 623.35 10.5765 618.12C7.7783 612.882 6.29175 607.686 6.29175 593.361L6.29175 47.0892C6.29175 32.7639 7.7783 27.5679 10.5765 22.3304C13.3706 17.1005 17.4708 12.9961 22.6953 10.1991C27.9274 7.39805 33.1182 5.90997 47.4287 5.90997L264.184 5.90997C278.495 5.90997 283.685 7.39805 288.918 10.1991Z" fill-rule="nonzero" stroke="rgb(97,100,100)" stroke-width="0.579999983" />
			</g>
		</g>
		<g id="Group-4">
			<path id="Path-2" d="M25.9102 13.6431C20.1497 16.8351 9.0386 24.5767 8 41.6602L8 602.59C8.9499 617.338 20.5688 627.531 26.4081 630.149C18.7737 623.351 13.2259 615.627 13.4009 602.59L13.4009 41.6602C13.4009 30.6694 16.7912 21.1007 25.9102 13.6431Z" fill="url(#paint_linear_6)" fill-rule="nonzero" />
			<path id="Path-2-Copy" d="M17.9102 0C12.1497 3.19196 1.0386 10.9335 0 28.0171L0 588.947C0.949896 603.695 12.5688 613.888 18.4081 616.506C10.7737 609.708 5.22595 601.983 5.40092 588.947L5.40092 28.0171C5.40092 17.0263 8.7912 7.45761 17.9102 0Z" fill="url(#paint_linear_7)" fill-rule="nonzero" transform="matrix(-1,0,0,1,304,13.6431)" />
			<path id="Rectangle-3" d="M24.6477 20.9706C24.6477 17.2209 34.7299 9 42.2042 9L268.397 9C276.505 9 286.594 16.1867 286.594 23.0537L286.594 32.9411L24.6477 32.9411C24.6477 27.4605 24.6477 23.4704 24.6477 20.9706Z" fill="url(#paint_radial_0)" fill-rule="nonzero" />
			<path id="Rectangle-3-Copy" d="M0 11.9706C0 8.22088 10.0822 0 17.5565 0L243.749 0C251.858 0 261.946 7.18668 261.946 14.0537L261.946 23.9411L0 23.9411C0 18.4605 0 14.4703 0 11.9706Z" fill="url(#paint_radial_1)" fill-rule="nonzero" transform="matrix(1,-1.22465e-16,-1.22465e-16,-1,24.6477,635)" />
		</g>
		<g id="Group-3">
			<rect id="Rectangle-4" width="38.267925" height="4.046548" x="137.000000" y="22.643250" rx="2.023274" fill="rgb(30,30,31)" />
			<rect id="Rectangle-4" width="38.267925" height="4.046548" x="137.000000" y="22.643250" rx="2.023274" stroke="rgb(41,41,42)" stroke-width="0.579999983" />
			<g id="Group-2">
				<ellipse id="Oval-2-Copy" rx="4.891304" ry="4.500000" cx="186.108719" cy="24.5" fill="rgb(22,23,23)" />
				<g id="Group">
					<g id="Oval-2">
						<path id="path-28" d="M186.206 27.4504C187.827 27.4504 189.141 26.2416 189.141 24.7504C189.141 23.2592 187.827 22.0504 186.206 22.0504C184.585 22.0504 183.271 23.2592 183.271 24.7504C183.271 26.2416 184.585 27.4504 186.206 27.4504Z" fill="rgb(21,27,34)" fill-rule="nonzero" />
						<path id="path-28" d="M189.141 24.7504C189.141 23.2592 187.827 22.0504 186.206 22.0504C184.585 22.0504 183.271 23.2592 183.271 24.7504C183.271 26.2416 184.585 27.4504 186.206 27.4504C187.827 27.4504 189.141 26.2416 189.141 24.7504Z" fill-rule="nonzero" stroke="rgb(9,9,9)" stroke-width="0.579999983" />
					</g>
					<g id="Oval Clipped" mask="url(#mask_10)">
						<path id="Oval" d="M1.62951 2.58582C2.51497 2.60498 3.22111 2.04176 3.20677 1.32783C3.19244 0.613908 2.46295 0.0196292 1.57748 0.000474444C0.692013 -0.0186803 -0.0141209 0.544543 0.000214461 1.25847C0.0145498 1.97239 0.744041 2.56667 1.62951 2.58582Z" fill="rgb(17,53,134)" fill-rule="nonzero" transform="matrix(-0.258819,0.965926,-0.965926,-0.258819,185.759,22.4351)" />
					</g>
					<g id="Oval-Copy Clipped" mask="url(#mask_11)">
						<path id="Oval-Copy" d="M1.62951 2.58582C2.51497 2.60498 3.22111 2.04176 3.20677 1.32783C3.19244 0.613908 2.46295 0.0196292 1.57748 0.000474444C0.692013 -0.0186803 -0.0141209 0.544543 0.000214461 1.25847C0.0145498 1.97239 0.744041 2.56667 1.62951 2.58582Z" fill="rgb(17,53,134)" fill-rule="nonzero" transform="matrix(-0.258819,0.965926,-0.965926,-0.258819,189.281,23.1551)" />
					</g>
				</g>
			</g>
		</g>
		<g id="Mask">
			<path id="path-32" d="M16 600.954L16 42.9744C16.2019 42.2461 16.4884 41.5297 16.5904 40.7878C16.9498 38.1729 17.6365 35.655 18.7895 33.2854C22.567 25.5217 28.9757 21.295 37.2693 19.6581C38.7017 19.3755 40.1583 19.2163 41.6038 19L82.3072 19C82.433 19.0933 82.546 19.2197 82.6866 19.2749C84.8145 20.1066 85.6112 21.2211 85.6562 23.4607C85.6662 23.9532 85.6557 24.4458 85.6596 24.9384C85.7093 31.1708 88.9466 35.8368 94.7681 38.0298C97.4098 39.0249 100.156 39.3728 102.973 39.3718C138.365 39.3595 173.757 39.3639 209.148 39.3636C209.86 39.3636 210.572 39.3863 211.281 39.3497C214.26 39.1964 217.137 38.6135 219.794 37.1961C223.709 35.1077 226.183 31.9426 226.817 27.495C227.016 26.0951 227.012 24.6634 227.054 23.2448C227.1 21.7045 227.698 20.4825 229.033 19.6938C229.541 19.3939 230.127 19.2273 230.678 19L270.724 19C271.198 19.0956 271.669 19.1989 272.144 19.2851C274.122 19.644 276.149 19.8306 278.071 20.3816C288.182 23.2801 294.741 31.2102 295.726 41.5566C295.761 41.9251 295.906 42.2831 296 42.646L296 601.282C295.867 602.3 295.781 603.326 295.594 604.333C293.871 613.621 288.877 620.22 279.801 623.404C276.412 624.594 272.886 624.993 269.31 624.993C193.867 625 118.424 625 42.9806 625C42.6524 625 42.3238 625 41.9958 624.994C38.5359 624.866 35.1178 624.436 31.8714 623.181C22.9051 619.714 18.1328 612.951 16.6412 603.633C16.4965 602.729 16.217 601.846 16 600.954Z" fill="rgb(91,91,91)" fill-rule="nonzero" />
		</g>
		<g id="change-this Clipped" mask="url(#mask_12)">
			<rect id="change-this" width="280.001892" height="606.000000" x="15.893921" y="18.953430" fill="rgb(240,240,243)" />
		</g>
		<g id="Group-41 Clipped">
			<path id="path-32" d="M16 600.954L16 42.9744C16.2019 42.2461 16.4884 41.5297 16.5904 40.7878C16.9498 38.1729 17.6365 35.655 18.7895 33.2854C22.567 25.5217 28.9757 21.295 37.2693 19.6581C38.7017 19.3755 40.1583 19.2163 41.6038 19L82.3072 19C82.433 19.0933 82.546 19.2197 82.6866 19.2749C84.8145 20.1066 85.6112 21.2211 85.6562 23.4607C85.6662 23.9532 85.6557 24.4458 85.6596 24.9384C85.7093 31.1708 88.9466 35.8368 94.7681 38.0298C97.4098 39.0249 100.156 39.3728 102.973 39.3718C138.365 39.3595 173.757 39.3639 209.148 39.3636C209.86 39.3636 210.572 39.3863 211.281 39.3497C214.26 39.1964 217.137 38.6135 219.794 37.1961C223.709 35.1077 226.183 31.9426 226.817 27.495C227.016 26.0951 227.012 24.6634 227.054 23.2448C227.1 21.7045 227.698 20.4825 229.033 19.6938C229.541 19.3939 230.127 19.2273 230.678 19L270.724 19C271.198 19.0956 271.669 19.1989 272.144 19.2851C274.122 19.644 276.149 19.8306 278.071 20.3816C288.182 23.2801 294.741 31.2102 295.726 41.5566C295.761 41.9251 295.906 42.2831 296 42.646L296 601.282C295.867 602.3 295.781 603.326 295.594 604.333C293.871 613.621 288.877 620.22 279.801 623.404C276.412 624.594 272.886 624.993 269.31 624.993C193.867 625 118.424 625 42.9806 625C42.6524 625 42.3238 625 41.9958 624.994C38.5359 624.866 35.1178 624.436 31.8714 623.181C22.9051 619.714 18.1328 612.951 16.6412 603.633C16.4965 602.729 16.217 601.846 16 600.954Z" fill="rgb(252,250,249)" fill-rule="evenodd" />
			<g mask="url(#mask_13)">
				<g id="Group" clip-path="url(#clipPath_0)" customFrame="url(#clipPath_0)">
					<rect id="Group" width="216.000000" height="46.000000" x="48.000000" y="541.500000" fill="rgb(255,255,255)" fill-opacity="0" />
					<rect id="Rectangle" width="216.000000" height="46.000000" x="48.000000" y="541.500000" rx="23.000000" fill="rgb(101.789,225.829,219.692)" />
					<rect id="Rectangle" width="216.000000" height="46.000000" x="48.000000" y="541.500000" rx="23.000000" stroke="rgb(150.96,150.96,150.96)" stroke-opacity="0" stroke-width="0" />
					<path id="APPLY SETTINGS" d="M105.881 569.25L105.181 566.926L101.919 566.926L101.219 569.25L99.063 569.25L102.283 559.478L104.915 559.478L108.093 569.25L105.881 569.25ZM103.571 561.41L103.501 561.41L102.423 565.12L104.663 565.12L103.571 561.41ZM109.305 569.25L109.305 559.478L113.925 559.478C114.382 559.478 114.793 559.557 115.157 559.716C115.521 559.865 115.829 560.075 116.081 560.346C116.342 560.617 116.543 560.948 116.683 561.34C116.823 561.723 116.893 562.143 116.893 562.6C116.893 563.067 116.823 563.491 116.683 563.874C116.543 564.257 116.342 564.583 116.081 564.854C115.829 565.125 115.521 565.339 115.157 565.498C114.793 565.647 114.382 565.722 113.925 565.722L111.433 565.722L111.433 569.25L109.305 569.25ZM111.433 563.874L113.673 563.874C113.99 563.874 114.238 563.795 114.415 563.636C114.602 563.468 114.695 563.225 114.695 562.908L114.695 562.292C114.695 561.975 114.602 561.737 114.415 561.578C114.238 561.41 113.99 561.326 113.673 561.326L111.433 561.326L111.433 563.874ZM118.353 569.25L118.353 559.478L122.973 559.478C123.43 559.478 123.841 559.557 124.205 559.716C124.569 559.865 124.877 560.075 125.129 560.346C125.39 560.617 125.591 560.948 125.731 561.34C125.871 561.723 125.941 562.143 125.941 562.6C125.941 563.067 125.871 563.491 125.731 563.874C125.591 564.257 125.39 564.583 125.129 564.854C124.877 565.125 124.569 565.339 124.205 565.498C123.841 565.647 123.43 565.722 122.973 565.722L120.481 565.722L120.481 569.25L118.353 569.25ZM120.481 563.874L122.721 563.874C123.038 563.874 123.285 563.795 123.463 563.636C123.649 563.468 123.743 563.225 123.743 562.908L123.743 562.292C123.743 561.975 123.649 561.737 123.463 561.578C123.285 561.41 123.038 561.326 122.721 561.326L120.481 561.326L120.481 563.874ZM127.4 569.25L127.4 559.478L129.528 559.478L129.528 567.36L133.252 567.36L133.252 569.25L127.4 569.25ZM135.834 569.25L135.834 565.428L132.488 559.478L134.868 559.478L136.968 563.37L136.996 563.37L139.012 559.478L141.322 559.478L137.976 565.414L137.976 569.25L135.834 569.25ZM148.724 569.418C147.865 569.418 147.137 569.273 146.54 568.984C145.943 568.685 145.434 568.303 145.014 567.836L146.414 566.422C147.077 567.169 147.893 567.542 148.864 567.542C149.387 567.542 149.774 567.435 150.026 567.22C150.278 567.005 150.404 566.721 150.404 566.366C150.404 566.095 150.329 565.871 150.18 565.694C150.031 565.507 149.727 565.381 149.27 565.316L148.304 565.19C147.268 565.059 146.507 564.747 146.022 564.252C145.546 563.757 145.308 563.099 145.308 562.278C145.308 561.839 145.392 561.438 145.56 561.074C145.728 560.71 145.966 560.397 146.274 560.136C146.591 559.875 146.974 559.674 147.422 559.534C147.879 559.385 148.397 559.31 148.976 559.31C149.713 559.31 150.362 559.427 150.922 559.66C151.482 559.893 151.963 560.234 152.364 560.682L150.95 562.11C150.717 561.839 150.432 561.62 150.096 561.452C149.769 561.275 149.354 561.186 148.85 561.186C148.374 561.186 148.019 561.27 147.786 561.438C147.553 561.606 147.436 561.839 147.436 562.138C147.436 562.474 147.525 562.717 147.702 562.866C147.889 563.015 148.187 563.123 148.598 563.188L149.564 563.342C150.572 563.501 151.319 563.813 151.804 564.28C152.289 564.737 152.532 565.391 152.532 566.24C152.532 566.707 152.448 567.136 152.28 567.528C152.112 567.92 151.865 568.256 151.538 568.536C151.221 568.816 150.824 569.035 150.348 569.194C149.872 569.343 149.331 569.418 148.724 569.418ZM154.156 569.25L154.156 559.478L160.806 559.478L160.806 561.368L156.284 561.368L156.284 563.37L160.162 563.37L160.162 565.246L156.284 565.246L156.284 567.36L160.806 567.36L160.806 569.25L154.156 569.25ZM166.594 561.368L166.594 569.25L164.466 569.25L164.466 561.368L161.82 561.368L161.82 559.478L169.24 559.478L169.24 561.368L166.594 561.368ZM174.835 561.368L174.835 569.25L172.707 569.25L172.707 561.368L170.061 561.368L170.061 559.478L177.481 559.478L177.481 561.368L174.835 561.368ZM178.364 569.25L178.364 567.556L179.624 567.556L179.624 561.172L178.364 561.172L178.364 559.478L183.012 559.478L183.012 561.172L181.752 561.172L181.752 567.556L183.012 567.556L183.012 569.25L178.364 569.25ZM187.627 564.63L186.689 562.67L186.647 562.67L186.647 569.25L184.645 569.25L184.645 559.478L186.969 559.478L189.643 564.098L190.581 566.058L190.623 566.058L190.623 559.478L192.625 559.478L192.625 569.25L190.301 569.25L187.627 564.63ZM200.838 567.696L200.768 567.696C200.693 568.191 200.441 568.601 200.012 568.928C199.583 569.255 198.999 569.418 198.262 569.418C197.702 569.418 197.179 569.311 196.694 569.096C196.209 568.881 195.784 568.564 195.42 568.144C195.056 567.724 194.771 567.201 194.566 566.576C194.361 565.951 194.258 565.227 194.258 564.406C194.258 563.585 194.365 562.857 194.58 562.222C194.795 561.587 195.093 561.055 195.476 560.626C195.868 560.197 196.335 559.87 196.876 559.646C197.417 559.422 198.019 559.31 198.682 559.31C199.559 559.31 200.315 559.501 200.95 559.884C201.585 560.257 202.084 560.822 202.448 561.578L200.712 562.572C200.563 562.189 200.329 561.867 200.012 561.606C199.695 561.335 199.251 561.2 198.682 561.2C198.019 561.2 197.492 561.391 197.1 561.774C196.708 562.157 196.512 562.759 196.512 563.58L196.512 565.148C196.512 565.96 196.708 566.562 197.1 566.954C197.492 567.337 198.019 567.528 198.682 567.528C198.943 567.528 199.191 567.5 199.424 567.444C199.657 567.379 199.863 567.285 200.04 567.164C200.217 567.033 200.353 566.879 200.446 566.702C200.549 566.525 200.6 566.315 200.6 566.072L200.6 565.582L198.78 565.582L198.78 563.804L202.63 563.804L202.63 569.25L200.838 569.25L200.838 567.696ZM207.723 569.418C206.864 569.418 206.136 569.273 205.539 568.984C204.941 568.685 204.433 568.303 204.013 567.836L205.413 566.422C206.075 567.169 206.892 567.542 207.863 567.542C208.385 567.542 208.773 567.435 209.025 567.22C209.277 567.005 209.403 566.721 209.403 566.366C209.403 566.095 209.328 565.871 209.179 565.694C209.029 565.507 208.726 565.381 208.269 565.316L207.303 565.19C206.267 565.059 205.506 564.747 205.021 564.252C204.545 563.757 204.307 563.099 204.307 562.278C204.307 561.839 204.391 561.438 204.559 561.074C204.727 560.71 204.965 560.397 205.273 560.136C205.59 559.875 205.973 559.674 206.421 559.534C206.878 559.385 207.396 559.31 207.975 559.31C208.712 559.31 209.361 559.427 209.921 559.66C210.481 559.893 210.961 560.234 211.363 560.682L209.949 562.11C209.715 561.839 209.431 561.62 209.095 561.452C208.768 561.275 208.353 561.186 207.849 561.186C207.373 561.186 207.018 561.27 206.785 561.438C206.551 561.606 206.435 561.839 206.435 562.138C206.435 562.474 206.523 562.717 206.701 562.866C206.887 563.015 207.186 563.123 207.597 563.188L208.563 563.342C209.571 563.501 210.317 563.813 210.803 564.28C211.288 564.737 211.531 565.391 211.531 566.24C211.531 566.707 211.447 567.136 211.279 567.528C211.111 567.92 210.863 568.256 210.537 568.536C210.219 568.816 209.823 569.035 209.347 569.194C208.871 569.343 208.329 569.418 207.723 569.418Z" fill="rgb(25,24,38)" fill-rule="nonzero" />
				</g>
				<g id="Group 14" clip-path="url(#clipPath_1)" customFrame="url(#clipPath_1)">
					<rect id="Group 14" width="369.000000" height="208.000000" x="-29.000000" y="293.000000" fill="rgb(255,255,255)" fill-opacity="0" />
					<path id="TREBLE BOOST" d="M106.658 481.18L106.658 489.625L104.378 489.625L104.378 481.18L101.543 481.18L101.543 479.155L109.493 479.155L109.493 481.18L106.658 481.18ZM113.332 489.625L111.052 489.625L111.052 479.155L116.017 479.155C116.497 479.155 116.932 479.235 117.322 479.395C117.712 479.555 118.042 479.785 118.312 480.085C118.592 480.375 118.807 480.725 118.957 481.135C119.107 481.545 119.182 482 119.182 482.5C119.182 483.21 119.022 483.83 118.702 484.36C118.392 484.89 117.917 485.275 117.277 485.515L119.332 489.625L116.797 489.625L114.967 485.785L113.332 485.785L113.332 489.625ZM115.732 483.865C116.072 483.865 116.337 483.78 116.527 483.61C116.727 483.43 116.827 483.17 116.827 482.83L116.827 482.17C116.827 481.83 116.727 481.575 116.527 481.405C116.337 481.225 116.072 481.135 115.732 481.135L113.332 481.135L113.332 483.865L115.732 483.865ZM121.16 489.625L121.16 479.155L128.285 479.155L128.285 481.18L123.44 481.18L123.44 483.325L127.595 483.325L127.595 485.335L123.44 485.335L123.44 487.6L128.285 487.6L128.285 489.625L121.16 489.625ZM130.271 479.155L135.356 479.155C136.226 479.155 136.901 479.4 137.381 479.89C137.871 480.38 138.116 481.03 138.116 481.84C138.116 482.24 138.061 482.58 137.951 482.86C137.851 483.14 137.711 483.37 137.531 483.55C137.361 483.73 137.156 483.865 136.916 483.955C136.686 484.035 136.436 484.08 136.166 484.09L136.166 484.18C136.416 484.18 136.676 484.225 136.946 484.315C137.226 484.405 137.481 484.55 137.711 484.75C137.941 484.94 138.131 485.19 138.281 485.5C138.441 485.81 138.521 486.19 138.521 486.64C138.521 487.05 138.451 487.44 138.311 487.81C138.181 488.17 137.996 488.485 137.756 488.755C137.516 489.025 137.231 489.24 136.901 489.4C136.571 489.55 136.211 489.625 135.821 489.625L130.271 489.625L130.271 479.155ZM132.551 487.705L135.176 487.705C135.476 487.705 135.711 487.625 135.881 487.465C136.061 487.295 136.151 487.06 136.151 486.76L136.151 486.25C136.151 485.95 136.061 485.72 135.881 485.56C135.711 485.39 135.476 485.305 135.176 485.305L132.551 485.305L132.551 487.705ZM132.551 483.445L134.816 483.445C135.116 483.445 135.351 483.36 135.521 483.19C135.691 483.02 135.776 482.785 135.776 482.485L135.776 482.035C135.776 481.735 135.691 481.5 135.521 481.33C135.351 481.16 135.116 481.075 134.816 481.075L132.551 481.075L132.551 483.445ZM140.276 489.625L140.276 479.155L142.556 479.155L142.556 487.6L146.546 487.6L146.546 489.625L140.276 489.625ZM148.23 489.625L148.23 479.155L155.355 479.155L155.355 481.18L150.51 481.18L150.51 483.325L154.665 483.325L154.665 485.335L150.51 485.335L150.51 487.6L155.355 487.6L155.355 489.625L148.23 489.625ZM160.886 479.155L165.971 479.155C166.841 479.155 167.516 479.4 167.996 479.89C168.486 480.38 168.731 481.03 168.731 481.84C168.731 482.24 168.676 482.58 168.566 482.86C168.466 483.14 168.326 483.37 168.146 483.55C167.976 483.73 167.771 483.865 167.531 483.955C167.301 484.035 167.051 484.08 166.781 484.09L166.781 484.18C167.031 484.18 167.291 484.225 167.561 484.315C167.841 484.405 168.096 484.55 168.326 484.75C168.556 484.94 168.746 485.19 168.896 485.5C169.056 485.81 169.136 486.19 169.136 486.64C169.136 487.05 169.066 487.44 168.926 487.81C168.796 488.17 168.611 488.485 168.371 488.755C168.131 489.025 167.846 489.24 167.516 489.4C167.186 489.55 166.826 489.625 166.436 489.625L160.886 489.625L160.886 479.155ZM163.166 487.705L165.791 487.705C166.091 487.705 166.326 487.625 166.496 487.465C166.676 487.295 166.766 487.06 166.766 486.76L166.766 486.25C166.766 485.95 166.676 485.72 166.496 485.56C166.326 485.39 166.091 485.305 165.791 485.305L163.166 485.305L163.166 487.705ZM163.166 483.445L165.431 483.445C165.731 483.445 165.966 483.36 166.136 483.19C166.306 483.02 166.391 482.785 166.391 482.485L166.391 482.035C166.391 481.735 166.306 481.5 166.136 481.33C165.966 481.16 165.731 481.075 165.431 481.075L163.166 481.075L163.166 483.445ZM175.091 489.805C174.401 489.805 173.771 489.69 173.201 489.46C172.631 489.23 172.146 488.89 171.746 488.44C171.346 487.98 171.036 487.415 170.816 486.745C170.596 486.065 170.486 485.28 170.486 484.39C170.486 483.5 170.596 482.72 170.816 482.05C171.036 481.37 171.346 480.805 171.746 480.355C172.146 479.895 172.631 479.55 173.201 479.32C173.771 479.09 174.401 478.975 175.091 478.975C175.781 478.975 176.411 479.09 176.981 479.32C177.551 479.55 178.036 479.895 178.436 480.355C178.836 480.805 179.146 481.37 179.366 482.05C179.586 482.72 179.696 483.5 179.696 484.39C179.696 485.28 179.586 486.065 179.366 486.745C179.146 487.415 178.836 487.98 178.436 488.44C178.036 488.89 177.551 489.23 176.981 489.46C176.411 489.69 175.781 489.805 175.091 489.805ZM175.091 487.78C175.781 487.78 176.316 487.555 176.696 487.105C177.086 486.655 177.281 486.01 177.281 485.17L177.281 483.61C177.281 482.77 177.086 482.125 176.696 481.675C176.316 481.225 175.781 481 175.091 481C174.401 481 173.861 481.225 173.471 481.675C173.091 482.125 172.901 482.77 172.901 483.61L172.901 485.17C172.901 486.01 173.091 486.655 173.471 487.105C173.861 487.555 174.401 487.78 175.091 487.78ZM185.799 489.805C185.109 489.805 184.479 489.69 183.909 489.46C183.339 489.23 182.854 488.89 182.454 488.44C182.054 487.98 181.744 487.415 181.524 486.745C181.304 486.065 181.194 485.28 181.194 484.39C181.194 483.5 181.304 482.72 181.524 482.05C181.744 481.37 182.054 480.805 182.454 480.355C182.854 479.895 183.339 479.55 183.909 479.32C184.479 479.09 185.109 478.975 185.799 478.975C186.489 478.975 187.119 479.09 187.689 479.32C188.259 479.55 188.744 479.895 189.144 480.355C189.544 480.805 189.854 481.37 190.074 482.05C190.294 482.72 190.404 483.5 190.404 484.39C190.404 485.28 190.294 486.065 190.074 486.745C189.854 487.415 189.544 487.98 189.144 488.44C188.744 488.89 188.259 489.23 187.689 489.46C187.119 489.69 186.489 489.805 185.799 489.805ZM185.799 487.78C186.489 487.78 187.024 487.555 187.404 487.105C187.794 486.655 187.989 486.01 187.989 485.17L187.989 483.61C187.989 482.77 187.794 482.125 187.404 481.675C187.024 481.225 186.489 481 185.799 481C185.109 481 184.569 481.225 184.179 481.675C183.799 482.125 183.609 482.77 183.609 483.61L183.609 485.17C183.609 486.01 183.799 486.655 184.179 487.105C184.569 487.555 185.109 487.78 185.799 487.78ZM195.639 489.805C194.719 489.805 193.939 489.65 193.299 489.34C192.659 489.02 192.114 488.61 191.664 488.11L193.164 486.595C193.874 487.395 194.749 487.795 195.789 487.795C196.349 487.795 196.764 487.68 197.034 487.45C197.304 487.22 197.439 486.915 197.439 486.535C197.439 486.245 197.359 486.005 197.199 485.815C197.039 485.615 196.714 485.48 196.224 485.41L195.189 485.275C194.079 485.135 193.264 484.8 192.744 484.27C192.234 483.74 191.979 483.035 191.979 482.155C191.979 481.685 192.069 481.255 192.249 480.865C192.429 480.475 192.684 480.14 193.014 479.86C193.354 479.58 193.764 479.365 194.244 479.215C194.734 479.055 195.289 478.975 195.909 478.975C196.699 478.975 197.394 479.1 197.994 479.35C198.594 479.6 199.109 479.965 199.539 480.445L198.024 481.975C197.774 481.685 197.469 481.45 197.109 481.27C196.759 481.08 196.314 480.985 195.774 480.985C195.264 480.985 194.884 481.075 194.634 481.255C194.384 481.435 194.259 481.685 194.259 482.005C194.259 482.365 194.354 482.625 194.544 482.785C194.744 482.945 195.064 483.06 195.504 483.13L196.539 483.295C197.619 483.465 198.419 483.8 198.939 484.3C199.459 484.79 199.719 485.49 199.719 486.4C199.719 486.9 199.629 487.36 199.449 487.78C199.269 488.2 199.004 488.56 198.654 488.86C198.314 489.16 197.889 489.395 197.379 489.565C196.869 489.725 196.289 489.805 195.639 489.805ZM205.623 481.18L205.623 489.625L203.343 489.625L203.343 481.18L200.508 481.18L200.508 479.155L208.458 479.155L208.458 481.18L205.623 481.18Z" fill="rgb(25,24,38)" fill-rule="nonzero" />
					<g style="mix-blend-mode:normal">
						<path id="BASS BOOST" d="M248.532 479.155L253.617 479.155C254.487 479.155 255.162 479.4 255.642 479.89C256.132 480.38 256.377 481.03 256.377 481.84C256.377 482.24 256.322 482.58 256.212 482.86C256.112 483.14 255.972 483.37 255.792 483.55C255.622 483.73 255.417 483.865 255.177 483.955C254.947 484.035 254.697 484.08 254.427 484.09L254.427 484.18C254.677 484.18 254.937 484.225 255.207 484.315C255.487 484.405 255.742 484.55 255.972 484.75C256.202 484.94 256.392 485.19 256.542 485.5C256.702 485.81 256.782 486.19 256.782 486.64C256.782 487.05 256.712 487.44 256.572 487.81C256.442 488.17 256.257 488.485 256.017 488.755C255.777 489.025 255.492 489.24 255.162 489.4C254.832 489.55 254.472 489.625 254.082 489.625L248.532 489.625L248.532 479.155ZM250.812 487.705L253.437 487.705C253.737 487.705 253.972 487.625 254.142 487.465C254.322 487.295 254.412 487.06 254.412 486.76L254.412 486.25C254.412 485.95 254.322 485.72 254.142 485.56C253.972 485.39 253.737 485.305 253.437 485.305L250.812 485.305L250.812 487.705ZM250.812 483.445L253.077 483.445C253.377 483.445 253.612 483.36 253.782 483.19C253.952 483.02 254.037 482.785 254.037 482.485L254.037 482.035C254.037 481.735 253.952 481.5 253.782 481.33C253.612 481.16 253.377 481.075 253.077 481.075L250.812 481.075L250.812 483.445ZM264.768 489.625L264.018 487.135L260.523 487.135L259.773 489.625L257.463 489.625L260.913 479.155L263.733 479.155L267.138 489.625L264.768 489.625ZM262.293 481.225L262.218 481.225L261.063 485.2L263.463 485.2L262.293 481.225ZM271.976 489.805C271.056 489.805 270.276 489.65 269.636 489.34C268.996 489.02 268.451 488.61 268.001 488.11L269.501 486.595C270.211 487.395 271.086 487.795 272.126 487.795C272.686 487.795 273.101 487.68 273.371 487.45C273.641 487.22 273.776 486.915 273.776 486.535C273.776 486.245 273.696 486.005 273.536 485.815C273.376 485.615 273.051 485.48 272.561 485.41L271.526 485.275C270.416 485.135 269.601 484.8 269.081 484.27C268.571 483.74 268.316 483.035 268.316 482.155C268.316 481.685 268.406 481.255 268.586 480.865C268.766 480.475 269.021 480.14 269.351 479.86C269.691 479.58 270.101 479.365 270.581 479.215C271.071 479.055 271.626 478.975 272.246 478.975C273.036 478.975 273.731 479.1 274.331 479.35C274.931 479.6 275.446 479.965 275.876 480.445L274.361 481.975C274.111 481.685 273.806 481.45 273.446 481.27C273.096 481.08 272.651 480.985 272.111 480.985C271.601 480.985 271.221 481.075 270.971 481.255C270.721 481.435 270.596 481.685 270.596 482.005C270.596 482.365 270.691 482.625 270.881 482.785C271.081 482.945 271.401 483.06 271.841 483.13L272.876 483.295C273.956 483.465 274.756 483.8 275.276 484.3C275.796 484.79 276.056 485.49 276.056 486.4C276.056 486.9 275.966 487.36 275.786 487.78C275.606 488.2 275.341 488.56 274.991 488.86C274.651 489.16 274.226 489.395 273.716 489.565C273.206 489.725 272.626 489.805 271.976 489.805ZM281.131 489.805C280.211 489.805 279.431 489.65 278.791 489.34C278.151 489.02 277.606 488.61 277.156 488.11L278.656 486.595C279.366 487.395 280.241 487.795 281.281 487.795C281.841 487.795 282.256 487.68 282.526 487.45C282.796 487.22 282.931 486.915 282.931 486.535C282.931 486.245 282.851 486.005 282.691 485.815C282.531 485.615 282.206 485.48 281.716 485.41L280.681 485.275C279.571 485.135 278.756 484.8 278.236 484.27C277.726 483.74 277.471 483.035 277.471 482.155C277.471 481.685 277.561 481.255 277.741 480.865C277.921 480.475 278.176 480.14 278.506 479.86C278.846 479.58 279.256 479.365 279.736 479.215C280.226 479.055 280.781 478.975 281.401 478.975C282.191 478.975 282.886 479.1 283.486 479.35C284.086 479.6 284.601 479.965 285.031 480.445L283.516 481.975C283.266 481.685 282.961 481.45 282.601 481.27C282.251 481.08 281.806 480.985 281.266 480.985C280.756 480.985 280.376 481.075 280.126 481.255C279.876 481.435 279.751 481.685 279.751 482.005C279.751 482.365 279.846 482.625 280.036 482.785C280.236 482.945 280.556 483.06 280.996 483.13L282.031 483.295C283.111 483.465 283.911 483.8 284.431 484.3C284.951 484.79 285.211 485.49 285.211 486.4C285.211 486.9 285.121 487.36 284.941 487.78C284.761 488.2 284.496 488.56 284.146 488.86C283.806 489.16 283.381 489.395 282.871 489.565C282.361 489.725 281.781 489.805 281.131 489.805ZM290.647 479.155L295.732 479.155C296.602 479.155 297.277 479.4 297.757 479.89C298.247 480.38 298.492 481.03 298.492 481.84C298.492 482.24 298.437 482.58 298.327 482.86C298.227 483.14 298.087 483.37 297.907 483.55C297.737 483.73 297.532 483.865 297.292 483.955C297.062 484.035 296.812 484.08 296.542 484.09L296.542 484.18C296.792 484.18 297.052 484.225 297.322 484.315C297.602 484.405 297.857 484.55 298.087 484.75C298.317 484.94 298.507 485.19 298.657 485.5C298.817 485.81 298.897 486.19 298.897 486.64C298.897 487.05 298.827 487.44 298.687 487.81C298.557 488.17 298.372 488.485 298.132 488.755C297.892 489.025 297.607 489.24 297.277 489.4C296.947 489.55 296.587 489.625 296.197 489.625L290.647 489.625L290.647 479.155ZM292.927 487.705L295.552 487.705C295.852 487.705 296.087 487.625 296.257 487.465C296.437 487.295 296.527 487.06 296.527 486.76L296.527 486.25C296.527 485.95 296.437 485.72 296.257 485.56C296.087 485.39 295.852 485.305 295.552 485.305L292.927 485.305L292.927 487.705ZM292.927 483.445L295.192 483.445C295.492 483.445 295.727 483.36 295.897 483.19C296.067 483.02 296.152 482.785 296.152 482.485L296.152 482.035C296.152 481.735 296.067 481.5 295.897 481.33C295.727 481.16 295.492 481.075 295.192 481.075L292.927 481.075L292.927 483.445ZM304.852 489.805C304.162 489.805 303.532 489.69 302.962 489.46C302.392 489.23 301.907 488.89 301.507 488.44C301.107 487.98 300.797 487.415 300.577 486.745C300.357 486.065 300.247 485.28 300.247 484.39C300.247 483.5 300.357 482.72 300.577 482.05C300.797 481.37 301.107 480.805 301.507 480.355C301.907 479.895 302.392 479.55 302.962 479.32C303.532 479.09 304.162 478.975 304.852 478.975C305.542 478.975 306.172 479.09 306.742 479.32C307.312 479.55 307.797 479.895 308.197 480.355C308.597 480.805 308.907 481.37 309.127 482.05C309.347 482.72 309.457 483.5 309.457 484.39C309.457 485.28 309.347 486.065 309.127 486.745C308.907 487.415 308.597 487.98 308.197 488.44C307.797 488.89 307.312 489.23 306.742 489.46C306.172 489.69 305.542 489.805 304.852 489.805ZM304.852 487.78C305.542 487.78 306.077 487.555 306.457 487.105C306.847 486.655 307.042 486.01 307.042 485.17L307.042 483.61C307.042 482.77 306.847 482.125 306.457 481.675C306.077 481.225 305.542 481 304.852 481C304.162 481 303.622 481.225 303.232 481.675C302.852 482.125 302.662 482.77 302.662 483.61L302.662 485.17C302.662 486.01 302.852 486.655 303.232 487.105C303.622 487.555 304.162 487.78 304.852 487.78ZM315.56 489.805C314.87 489.805 314.24 489.69 313.67 489.46C313.1 489.23 312.615 488.89 312.215 488.44C311.815 487.98 311.505 487.415 311.285 486.745C311.065 486.065 310.955 485.28 310.955 484.39C310.955 483.5 311.065 482.72 311.285 482.05C311.505 481.37 311.815 480.805 312.215 480.355C312.615 479.895 313.1 479.55 313.67 479.32C314.24 479.09 314.87 478.975 315.56 478.975C316.25 478.975 316.88 479.09 317.45 479.32C318.02 479.55 318.505 479.895 318.905 480.355C319.305 480.805 319.615 481.37 319.835 482.05C320.055 482.72 320.165 483.5 320.165 484.39C320.165 485.28 320.055 486.065 319.835 486.745C319.615 487.415 319.305 487.98 318.905 488.44C318.505 488.89 318.02 489.23 317.45 489.46C316.88 489.69 316.25 489.805 315.56 489.805ZM315.56 487.78C316.25 487.78 316.785 487.555 317.165 487.105C317.555 486.655 317.75 486.01 317.75 485.17L317.75 483.61C317.75 482.77 317.555 482.125 317.165 481.675C316.785 481.225 316.25 481 315.56 481C314.87 481 314.33 481.225 313.94 481.675C313.56 482.125 313.37 482.77 313.37 483.61L313.37 485.17C313.37 486.01 313.56 486.655 313.94 487.105C314.33 487.555 314.87 487.78 315.56 487.78ZM325.399 489.805C324.479 489.805 323.699 489.65 323.059 489.34C322.419 489.02 321.874 488.61 321.424 488.11L322.924 486.595C323.634 487.395 324.509 487.795 325.549 487.795C326.109 487.795 326.524 487.68 326.794 487.45C327.064 487.22 327.199 486.915 327.199 486.535C327.199 486.245 327.119 486.005 326.959 485.815C326.799 485.615 326.474 485.48 325.984 485.41L324.949 485.275C323.839 485.135 323.024 484.8 322.504 484.27C321.994 483.74 321.739 483.035 321.739 482.155C321.739 481.685 321.829 481.255 322.009 480.865C322.189 480.475 322.444 480.14 322.774 479.86C323.114 479.58 323.524 479.365 324.004 479.215C324.494 479.055 325.049 478.975 325.669 478.975C326.459 478.975 327.154 479.1 327.754 479.35C328.354 479.6 328.869 479.965 329.299 480.445L327.784 481.975C327.534 481.685 327.229 481.45 326.869 481.27C326.519 481.08 326.074 480.985 325.534 480.985C325.024 480.985 324.644 481.075 324.394 481.255C324.144 481.435 324.019 481.685 324.019 482.005C324.019 482.365 324.114 482.625 324.304 482.785C324.504 482.945 324.824 483.06 325.264 483.13L326.299 483.295C327.379 483.465 328.179 483.8 328.699 484.3C329.219 484.79 329.479 485.49 329.479 486.4C329.479 486.9 329.389 487.36 329.209 487.78C329.029 488.2 328.764 488.56 328.414 488.86C328.074 489.16 327.649 489.395 327.139 489.565C326.629 489.725 326.049 489.805 325.399 489.805ZM335.383 481.18L335.383 489.625L333.103 489.625L333.103 481.18L330.268 481.18L330.268 479.155L338.218 479.155L338.218 481.18L335.383 481.18Z" opacity="0.25" fill="rgb(25,24,38)" fill-rule="nonzero" />
					</g>
					<g style="mix-blend-mode:normal">
						<path id="BASS BOOST Copy" d="M-26.0901 479.155L-21.0051 479.155C-20.1351 479.155 -19.4601 479.4 -18.9801 479.89C-18.4901 480.38 -18.2451 481.03 -18.2451 481.84C-18.2451 482.24 -18.3001 482.58 -18.4101 482.86C-18.5101 483.14 -18.6501 483.37 -18.8301 483.55C-19.0001 483.73 -19.2051 483.865 -19.4451 483.955C-19.6751 484.035 -19.9251 484.08 -20.1951 484.09L-20.1951 484.18C-19.9451 484.18 -19.6851 484.225 -19.4151 484.315C-19.1351 484.405 -18.8801 484.55 -18.6501 484.75C-18.4201 484.94 -18.2301 485.19 -18.0801 485.5C-17.9201 485.81 -17.8401 486.19 -17.8401 486.64C-17.8401 487.05 -17.9101 487.44 -18.0501 487.81C-18.1801 488.17 -18.3651 488.485 -18.6051 488.755C-18.8451 489.025 -19.1301 489.24 -19.4601 489.4C-19.7901 489.55 -20.1501 489.625 -20.5401 489.625L-26.0901 489.625L-26.0901 479.155ZM-23.8101 487.705L-21.1851 487.705C-20.8851 487.705 -20.6501 487.625 -20.4801 487.465C-20.3001 487.295 -20.2101 487.06 -20.2101 486.76L-20.2101 486.25C-20.2101 485.95 -20.3001 485.72 -20.4801 485.56C-20.6501 485.39 -20.8851 485.305 -21.1851 485.305L-23.8101 485.305L-23.8101 487.705ZM-23.8101 483.445L-21.5451 483.445C-21.2451 483.445 -21.0101 483.36 -20.8401 483.19C-20.6701 483.02 -20.5851 482.785 -20.5851 482.485L-20.5851 482.035C-20.5851 481.735 -20.6701 481.5 -20.8401 481.33C-21.0101 481.16 -21.2451 481.075 -21.5451 481.075L-23.8101 481.075L-23.8101 483.445ZM-9.85496 489.625L-10.605 487.135L-14.1 487.135L-14.85 489.625L-17.16 489.625L-13.71 479.155L-10.89 479.155L-7.48496 489.625L-9.85496 489.625ZM-12.33 481.225L-12.405 481.225L-13.56 485.2L-11.16 485.2L-12.33 481.225ZM-2.64641 489.805C-3.56641 489.805 -4.34641 489.65 -4.98641 489.34C-5.62641 489.02 -6.17141 488.61 -6.62141 488.11L-5.12141 486.595C-4.41141 487.395 -3.53641 487.795 -2.49641 487.795C-1.93641 487.795 -1.52141 487.68 -1.25141 487.45C-0.981407 487.22 -0.846405 486.915 -0.846405 486.535C-0.846405 486.245 -0.926407 486.005 -1.08641 485.815C-1.24641 485.615 -1.57141 485.48 -2.06141 485.41L-3.09641 485.275C-4.20641 485.135 -5.02141 484.8 -5.54141 484.27C-6.05141 483.74 -6.30641 483.035 -6.30641 482.155C-6.30641 481.685 -6.21641 481.255 -6.03641 480.865C-5.85641 480.475 -5.60141 480.14 -5.27141 479.86C-4.93141 479.58 -4.52141 479.365 -4.04141 479.215C-3.55141 479.055 -2.99641 478.975 -2.37641 478.975C-1.58641 478.975 -0.891407 479.1 -0.291407 479.35C0.308594 479.6 0.823593 479.965 1.25359 480.445L-0.261406 481.975C-0.511406 481.685 -0.816406 481.45 -1.17641 481.27C-1.52641 481.08 -1.97141 480.985 -2.51141 480.985C-3.02141 480.985 -3.40141 481.075 -3.65141 481.255C-3.90141 481.435 -4.02641 481.685 -4.02641 482.005C-4.02641 482.365 -3.93141 482.625 -3.74141 482.785C-3.54141 482.945 -3.22141 483.06 -2.78141 483.13L-1.74641 483.295C-0.666407 483.465 0.133595 483.8 0.653595 484.3C1.1736 484.79 1.43359 485.49 1.43359 486.4C1.43359 486.9 1.34359 487.36 1.16359 487.78C0.983593 488.2 0.718594 488.56 0.368593 488.86C0.028595 489.16 -0.396406 489.395 -0.906406 489.565C-1.41641 489.725 -1.99641 489.805 -2.64641 489.805ZM6.50887 489.805C5.58887 489.805 4.80887 489.65 4.16887 489.34C3.52887 489.02 2.98387 488.61 2.53387 488.11L4.03387 486.595C4.74387 487.395 5.61887 487.795 6.65887 487.795C7.21887 487.795 7.63387 487.68 7.90387 487.45C8.17387 487.22 8.30887 486.915 8.30887 486.535C8.30887 486.245 8.22887 486.005 8.06887 485.815C7.90887 485.615 7.58387 485.48 7.09387 485.41L6.05887 485.275C4.94887 485.135 4.13387 484.8 3.61387 484.27C3.10387 483.74 2.84887 483.035 2.84887 482.155C2.84887 481.685 2.93887 481.255 3.11887 480.865C3.29887 480.475 3.55387 480.14 3.88387 479.86C4.22387 479.58 4.63387 479.365 5.11387 479.215C5.60387 479.055 6.15887 478.975 6.77887 478.975C7.56887 478.975 8.26387 479.1 8.86387 479.35C9.46387 479.6 9.97887 479.965 10.4089 480.445L8.89387 481.975C8.64387 481.685 8.33887 481.45 7.97887 481.27C7.62887 481.08 7.18387 480.985 6.64387 480.985C6.13387 480.985 5.75387 481.075 5.50387 481.255C5.25387 481.435 5.12887 481.685 5.12887 482.005C5.12887 482.365 5.22387 482.625 5.41387 482.785C5.61387 482.945 5.93387 483.06 6.37387 483.13L7.40887 483.295C8.48887 483.465 9.28887 483.8 9.80887 484.3C10.3289 484.79 10.5889 485.49 10.5889 486.4C10.5889 486.9 10.4989 487.36 10.3189 487.78C10.1389 488.2 9.87387 488.56 9.52387 488.86C9.18387 489.16 8.75887 489.395 8.24887 489.565C7.73887 489.725 7.15887 489.805 6.50887 489.805ZM16.0241 479.155L21.1091 479.155C21.9791 479.155 22.6541 479.4 23.1341 479.89C23.6241 480.38 23.8691 481.03 23.8691 481.84C23.8691 482.24 23.8141 482.58 23.7041 482.86C23.6041 483.14 23.4641 483.37 23.2841 483.55C23.1141 483.73 22.9091 483.865 22.6691 483.955C22.4391 484.035 22.1891 484.08 21.9191 484.09L21.9191 484.18C22.1691 484.18 22.4291 484.225 22.6991 484.315C22.9791 484.405 23.2341 484.55 23.4641 484.75C23.6941 484.94 23.8841 485.19 24.0341 485.5C24.1941 485.81 24.2741 486.19 24.2741 486.64C24.2741 487.05 24.2041 487.44 24.0641 487.81C23.9341 488.17 23.7491 488.485 23.5091 488.755C23.2691 489.025 22.9841 489.24 22.6541 489.4C22.3241 489.55 21.9641 489.625 21.5741 489.625L16.0241 489.625L16.0241 479.155ZM18.3041 487.705L20.9291 487.705C21.2291 487.705 21.4641 487.625 21.6341 487.465C21.8141 487.295 21.9041 487.06 21.9041 486.76L21.9041 486.25C21.9041 485.95 21.8141 485.72 21.6341 485.56C21.4641 485.39 21.2291 485.305 20.9291 485.305L18.3041 485.305L18.3041 487.705ZM18.3041 483.445L20.5691 483.445C20.8691 483.445 21.1041 483.36 21.2741 483.19C21.4441 483.02 21.5291 482.785 21.5291 482.485L21.5291 482.035C21.5291 481.735 21.4441 481.5 21.2741 481.33C21.1041 481.16 20.8691 481.075 20.5691 481.075L18.3041 481.075L18.3041 483.445ZM30.229 489.805C29.539 489.805 28.909 489.69 28.339 489.46C27.769 489.23 27.284 488.89 26.884 488.44C26.484 487.98 26.174 487.415 25.954 486.745C25.734 486.065 25.624 485.28 25.624 484.39C25.624 483.5 25.734 482.72 25.954 482.05C26.174 481.37 26.484 480.805 26.884 480.355C27.284 479.895 27.769 479.55 28.339 479.32C28.909 479.09 29.539 478.975 30.229 478.975C30.919 478.975 31.549 479.09 32.119 479.32C32.689 479.55 33.174 479.895 33.574 480.355C33.974 480.805 34.284 481.37 34.504 482.05C34.724 482.72 34.834 483.5 34.834 484.39C34.834 485.28 34.724 486.065 34.504 486.745C34.284 487.415 33.974 487.98 33.574 488.44C33.174 488.89 32.689 489.23 32.119 489.46C31.549 489.69 30.919 489.805 30.229 489.805ZM30.229 487.78C30.919 487.78 31.454 487.555 31.834 487.105C32.224 486.655 32.419 486.01 32.419 485.17L32.419 483.61C32.419 482.77 32.224 482.125 31.834 481.675C31.454 481.225 30.919 481 30.229 481C29.539 481 28.999 481.225 28.609 481.675C28.229 482.125 28.039 482.77 28.039 483.61L28.039 485.17C28.039 486.01 28.229 486.655 28.609 487.105C28.999 487.555 29.539 487.78 30.229 487.78ZM40.937 489.805C40.247 489.805 39.617 489.69 39.047 489.46C38.477 489.23 37.992 488.89 37.592 488.44C37.192 487.98 36.882 487.415 36.662 486.745C36.442 486.065 36.332 485.28 36.332 484.39C36.332 483.5 36.442 482.72 36.662 482.05C36.882 481.37 37.192 480.805 37.592 480.355C37.992 479.895 38.477 479.55 39.047 479.32C39.617 479.09 40.247 478.975 40.937 478.975C41.627 478.975 42.257 479.09 42.827 479.32C43.397 479.55 43.882 479.895 44.282 480.355C44.682 480.805 44.992 481.37 45.212 482.05C45.432 482.72 45.542 483.5 45.542 484.39C45.542 485.28 45.432 486.065 45.212 486.745C44.992 487.415 44.682 487.98 44.282 488.44C43.882 488.89 43.397 489.23 42.827 489.46C42.257 489.69 41.627 489.805 40.937 489.805ZM40.937 487.78C41.627 487.78 42.162 487.555 42.542 487.105C42.932 486.655 43.127 486.01 43.127 485.17L43.127 483.61C43.127 482.77 42.932 482.125 42.542 481.675C42.162 481.225 41.627 481 40.937 481C40.247 481 39.707 481.225 39.317 481.675C38.937 482.125 38.747 482.77 38.747 483.61L38.747 485.17C38.747 486.01 38.937 486.655 39.317 487.105C39.707 487.555 40.247 487.78 40.937 487.78ZM50.7764 489.805C49.8564 489.805 49.0764 489.65 48.4364 489.34C47.7964 489.02 47.2514 488.61 46.8014 488.11L48.3014 486.595C49.0114 487.395 49.8864 487.795 50.9264 487.795C51.4864 487.795 51.9014 487.68 52.1714 487.45C52.4414 487.22 52.5764 486.915 52.5764 486.535C52.5764 486.245 52.4964 486.005 52.3364 485.815C52.1764 485.615 51.8514 485.48 51.3614 485.41L50.3264 485.275C49.2164 485.135 48.4014 484.8 47.8814 484.27C47.3714 483.74 47.1164 483.035 47.1164 482.155C47.1164 481.685 47.2064 481.255 47.3864 480.865C47.5664 480.475 47.8214 480.14 48.1514 479.86C48.4914 479.58 48.9014 479.365 49.3814 479.215C49.8714 479.055 50.4264 478.975 51.0464 478.975C51.8364 478.975 52.5314 479.1 53.1314 479.35C53.7314 479.6 54.2464 479.965 54.6764 480.445L53.1614 481.975C52.9114 481.685 52.6064 481.45 52.2464 481.27C51.8964 481.08 51.4514 480.985 50.9114 480.985C50.4014 480.985 50.0214 481.075 49.7714 481.255C49.5214 481.435 49.3964 481.685 49.3964 482.005C49.3964 482.365 49.4914 482.625 49.6814 482.785C49.8814 482.945 50.2014 483.06 50.6414 483.13L51.6764 483.295C52.7564 483.465 53.5564 483.8 54.0764 484.3C54.5964 484.79 54.8564 485.49 54.8564 486.4C54.8564 486.9 54.7664 487.36 54.5864 487.78C54.4064 488.2 54.1414 488.56 53.7914 488.86C53.4514 489.16 53.0264 489.395 52.5164 489.565C52.0064 489.725 51.4264 489.805 50.7764 489.805ZM60.7602 481.18L60.7602 489.625L58.4802 489.625L58.4802 481.18L55.6452 481.18L55.6452 479.155L63.5952 479.155L63.5952 481.18L60.7602 481.18Z" opacity="0.25" fill="rgb(25,24,38)" fill-rule="nonzero" />
					</g>
					<g id="Group 13">
						<g id="Group 12" clip-path="url(#clipPath_2)" customFrame="url(#clipPath_2)">
							<rect id="Group 12" width="66.000000" height="102.000000" x="123.000000" y="311.000000" fill="rgb(255,255,255)" fill-opacity="0" />
							<g style="mix-blend-mode:normal">
								<path id="dB" d="M152.475 400.365L152.415 400.365C151.945 401.325 151.19 401.805 150.15 401.805C149.67 401.805 149.235 401.71 148.845 401.52C148.455 401.33 148.12 401.06 147.84 400.71C147.57 400.36 147.36 399.935 147.21 399.435C147.07 398.935 147 398.375 147 397.755C147 397.135 147.07 396.575 147.21 396.075C147.36 395.575 147.57 395.15 147.84 394.8C148.12 394.45 148.455 394.18 148.845 393.99C149.235 393.8 149.67 393.705 150.15 393.705C150.69 393.705 151.15 393.825 151.53 394.065C151.92 394.295 152.215 394.655 152.415 395.145L152.475 395.145L152.475 390.525L153.675 390.525L153.675 401.625L152.475 401.625L152.475 400.365ZM150.48 400.725C150.75 400.725 151.005 400.69 151.245 400.62C151.495 400.55 151.71 400.45 151.89 400.32C152.07 400.18 152.21 400.015 152.31 399.825C152.42 399.625 152.475 399.4 152.475 399.15L152.475 396.27C152.475 396.06 152.42 395.865 152.31 395.685C152.21 395.495 152.07 395.335 151.89 395.205C151.71 395.075 151.495 394.975 151.245 394.905C151.005 394.825 150.75 394.785 150.48 394.785C149.8 394.785 149.265 395 148.875 395.43C148.485 395.85 148.29 396.405 148.29 397.095L148.29 398.415C148.29 399.105 148.485 399.665 148.875 400.095C149.265 400.515 149.8 400.725 150.48 400.725ZM156.346 391.155L160.651 391.155C161.521 391.155 162.201 391.4 162.691 391.89C163.191 392.38 163.441 393.035 163.441 393.855C163.441 394.245 163.386 394.575 163.276 394.845C163.166 395.115 163.026 395.34 162.856 395.52C162.686 395.69 162.501 395.82 162.301 395.91C162.101 395.99 161.916 396.045 161.746 396.075L161.746 396.165C161.936 396.175 162.146 396.225 162.376 396.315C162.616 396.405 162.841 396.55 163.051 396.75C163.261 396.94 163.436 397.19 163.576 397.5C163.726 397.8 163.801 398.165 163.801 398.595C163.801 399.025 163.731 399.425 163.591 399.795C163.461 400.165 163.276 400.485 163.036 400.755C162.796 401.025 162.511 401.24 162.181 401.4C161.851 401.55 161.491 401.625 161.101 401.625L156.346 401.625L156.346 391.155ZM157.606 400.515L160.711 400.515C161.251 400.515 161.676 400.38 161.986 400.11C162.296 399.83 162.451 399.425 162.451 398.895L162.451 398.385C162.451 397.855 162.296 397.455 161.986 397.185C161.676 396.905 161.251 396.765 160.711 396.765L157.606 396.765L157.606 400.515ZM157.606 395.685L160.501 395.685C161.001 395.685 161.391 395.56 161.671 395.31C161.951 395.06 162.091 394.7 162.091 394.23L162.091 393.72C162.091 393.25 161.951 392.89 161.671 392.64C161.391 392.39 161.001 392.265 160.501 392.265L157.606 392.265L157.606 395.685Z" opacity="0.5" fill="rgb(25,24,38)" fill-rule="nonzero" />
							</g>
							<path id="10" d="M128.504 376L128.504 369.224L139.032 369.224L139.032 343.016L138.528 343.016L130.576 353.432L125.2 349.232L134.552 336.912L147.432 336.912L147.432 369.224L155.72 369.224L155.72 376L128.504 376ZM172.982 376.672C167.867 376.672 164.078 374.899 161.614 371.352C159.15 367.805 157.918 362.84 157.918 356.456C157.918 350.072 159.15 345.107 161.614 341.56C164.078 338.013 167.867 336.24 172.982 336.24C178.096 336.24 181.886 338.013 184.35 341.56C186.814 345.107 188.046 350.072 188.046 356.456C188.046 362.84 186.814 367.805 184.35 371.352C181.886 374.899 178.096 376.672 172.982 376.672ZM172.982 369.56C175.222 369.56 176.771 368.739 177.63 367.096C178.488 365.453 178.918 363.139 178.918 360.152L178.918 352.76C178.918 349.773 178.488 347.459 177.63 345.816C176.771 344.173 175.222 343.352 172.982 343.352C170.742 343.352 169.192 344.173 168.334 345.816C167.475 347.459 167.046 349.773 167.046 352.76L167.046 360.152C167.046 363.139 167.475 365.453 168.334 367.096C169.192 368.739 170.742 369.56 172.982 369.56Z" fill="rgb(25,24,38)" fill-rule="nonzero" />
						</g>
						<rect id="Rectangle Copy 3" width="138.000000" height="138.000000" x="87.000000" y="296.000000" rx="68.000000" fill="rgb(101.789,225.829,219.692)" fill-opacity="0" />
						<rect id="Rectangle Copy 3" width="136.000000" height="136.000000" x="88.000000" y="297.000000" rx="68.000000" stroke="rgb(25,24,38)" stroke-width="2" />
						<path id="Rectangle Copy 11" d="M156 301C191.346 301 220 329.654 220 365C220 400.346 191.346 429 156 429C127.823 429 103.204 410.625 94.9135 384.155L87.2793 386.546C96.3458 415.493 123.197 436.575 155.034 436.994L156 437C195.367 437 227.354 405.406 227.99 366.191L228 365L227.99 363.809C227.361 324.986 196.003 293.633 157.179 293.009L156 293L156 301Z" fill="rgb(101.789,225.829,219.692)" fill-rule="nonzero" />
					</g>
				</g>
				<g id="Group 11">
					<path id="eq." d="M145.168 89.904C144.085 90.224 142.851 90.384 141.464 90.384C139.587 90.384 137.949 90.008 136.552 89.256C135.695 88.7949 134.957 88.2256 134.337 87.5481C133.945 87.1205 133.601 86.6498 133.304 86.136C133.259 86.0581 133.215 85.9796 133.173 85.9003L133.173 85.9003C132.492 84.6275 132.152 83.1727 132.152 81.536C132.152 79.866 132.505 78.3904 133.211 77.1093L133.211 77.1088C133.249 77.0399 133.288 76.9717 133.328 76.904C133.645 76.3668 134.013 75.8776 134.431 75.4364L134.431 75.4364L134.431 75.4363L134.431 75.4363C135.047 74.7869 135.773 74.2414 136.608 73.8C138.011 73.0587 139.635 72.688 141.48 72.688C143.368 72.688 145 73.064 146.376 73.816C147.138 74.2323 147.803 74.7401 148.372 75.3394L148.372 75.3395C148.831 75.8228 149.227 76.3656 149.56 76.968C150.307 78.3173 150.68 79.888 150.68 81.68C150.68 81.9467 150.675 82.2027 150.664 82.448L150.657 82.5875C150.647 82.7633 150.633 82.8981 150.616 82.992L137.173 82.992L137.192 83.0916C137.278 83.4975 137.398 83.8723 137.552 84.216C137.776 84.7164 138.072 85.142 138.439 85.4928L138.439 85.4929C138.64 85.6842 138.861 85.8532 139.104 86C139.792 86.416 140.648 86.624 141.672 86.624C142.333 86.624 142.904 86.5627 143.384 86.44C143.864 86.3173 144.256 86.16 144.56 85.968C144.864 85.776 145.096 85.5627 145.256 85.328C145.416 85.0933 145.512 84.864 145.544 84.64L150.44 84.64C150.376 85.3547 150.131 86.056 149.704 86.744C149.277 87.432 148.685 88.0507 147.928 88.6C147.171 89.1493 146.251 89.584 145.168 89.904ZM170.636 73.008L170.636 96.992L165.66 96.992L165.659 88.008L165.437 88.2441C165.053 88.6356 164.628 88.9835 164.164 89.288C163.049 90.0187 161.804 90.384 160.428 90.384C159.009 90.384 157.702 90.0453 156.508 89.368C155.313 88.6907 154.353 87.6853 153.628 86.352C152.902 85.0187 152.54 83.376 152.54 81.424C152.54 79.5573 152.91 77.9733 153.652 76.672C154.235 75.6478 154.96 74.8169 155.828 74.1793C156.063 74.0067 156.308 73.8483 156.564 73.704C157.17 73.3616 157.799 73.1057 158.451 72.9364C159.088 72.7708 159.747 72.688 160.428 72.688C161.226 72.688 161.984 72.8085 162.702 73.0496L162.702 73.0497C163.192 73.2142 163.663 73.435 164.116 73.712L164.39 73.8878C164.839 74.1895 165.249 74.5342 165.622 74.922L165.659 74.963L165.66 73.008L170.636 73.008ZM145.605 79.712L137.221 79.712L137.27 79.5182C137.323 79.3294 137.385 79.1482 137.455 78.9746L137.568 78.72C137.8 78.2353 138.099 77.8236 138.466 77.4849L138.466 77.4849L138.466 77.4848C138.665 77.3019 138.882 77.1403 139.12 77C139.797 76.6 140.605 76.4 141.544 76.4C142.483 76.4 143.253 76.5787 143.856 76.936C144.459 77.2933 144.904 77.752 145.192 78.312C145.398 78.712 145.53 79.1242 145.589 79.5487L145.605 79.712ZM161.692 86.08C160.604 86.08 159.657 85.704 158.852 84.952C158.845 84.946 158.839 84.94 158.832 84.934C158.04 84.1813 157.644 83.0113 157.644 81.424C157.644 79.8295 158.041 78.6667 158.835 77.9356C158.838 77.933 158.841 77.9305 158.844 77.928C159.222 77.5821 159.634 77.3181 160.08 77.136C160.576 76.9333 161.113 76.832 161.692 76.832C161.921 76.832 162.146 76.8509 162.369 76.8886C162.789 76.9598 163.198 77.0983 163.596 77.304C164.204 77.6187 164.7 78.064 165.084 78.64C165.468 79.216 165.66 79.904 165.66 80.704L165.66 82.096C165.66 82.9067 165.473 83.6107 165.1 84.208C164.726 84.8053 164.236 85.2667 163.628 85.592C163.02 85.9173 162.374 86.08 161.692 86.08ZM178.575 89.712C178.063 90.224 177.444 90.48 176.719 90.48C175.983 90.48 175.359 90.224 174.847 89.712C174.335 89.2 174.079 88.576 174.079 87.84C174.079 87.4752 174.144 87.1373 174.273 86.8265C174.401 86.5193 174.593 86.2385 174.847 85.984C175.359 85.472 175.983 85.216 176.719 85.216C177.444 85.216 178.063 85.472 178.575 85.984C178.83 86.2385 179.021 86.5193 179.149 86.8265C179.278 87.1373 179.343 87.4752 179.343 87.84C179.343 88.576 179.087 89.2 178.575 89.712Z" fill="rgb(25,24,38)" fill-rule="evenodd" />
					<g id="Group 10">
						<rect id="Rectangle" width="24.000000" height="2.000000" x="248.000000" y="76.000000" fill="rgb(25,24,38)" />
						<rect id="Rectangle" width="24.000000" height="2.000000" x="248.000000" y="76.000000" stroke="rgb(150.96,150.96,150.96)" stroke-opacity="0" stroke-width="0" />
						<rect id="Rectangle Copy 9" width="24.000000" height="2.000000" x="248.000000" y="82.000000" fill="rgb(25,24,38)" />
						<rect id="Rectangle Copy 9" width="24.000000" height="2.000000" x="248.000000" y="82.000000" stroke="rgb(150.96,150.96,150.96)" stroke-opacity="0" stroke-width="0" />
						<rect id="Rectangle Copy 10" width="24.000000" height="2.000000" x="248.000000" y="88.000000" fill="rgb(25,24,38)" />
						<rect id="Rectangle Copy 10" width="24.000000" height="2.000000" x="248.000000" y="88.000000" stroke="rgb(150.96,150.96,150.96)" stroke-opacity="0" stroke-width="0" />
					</g>
					<g id="Group 15">
						<rect id="Rectangle" width="2.000000" height="61.000000" x="84.959473" y="185.687988" fill="rgb(25,24,38)" />
						<rect id="Rectangle" width="2.000000" height="61.000000" x="84.959473" y="185.687988" stroke="rgb(150.96,150.96,150.96)" stroke-opacity="0" stroke-width="0" />
						<rect id="Rectangle Copy 12" width="2.000000" height="67.000000" x="94.959473" y="179.687988" fill="rgb(25,24,38)" />
						<rect id="Rectangle Copy 12" width="2.000000" height="67.000000" x="94.959473" y="179.687988" stroke="rgb(150.96,150.96,150.96)" stroke-opacity="0" stroke-width="0" />
						<rect id="Rectangle Copy 13" width="2.000000" height="81.000000" x="104.959473" y="165.687988" fill="rgb(25,24,38)" />
						<rect id="Rectangle Copy 13" width="2.000000" height="81.000000" x="104.959473" y="165.687988" stroke="rgb(150.96,150.96,150.96)" stroke-opacity="0" stroke-width="0" />
						<rect id="Rectangle Copy 16" width="2.000000" height="64.000000" x="114.959473" y="182.687988" fill="rgb(25,24,38)" />
						<rect id="Rectangle Copy 16" width="2.000000" height="64.000000" x="114.959473" y="182.687988" stroke="rgb(150.96,150.96,150.96)" stroke-opacity="0" stroke-width="0" />
						<rect id="Rectangle Copy 15" width="2.000000" height="56.000000" x="124.959473" y="190.687988" fill="rgb(25,24,38)" />
						<rect id="Rectangle Copy 15" width="2.000000" height="56.000000" x="124.959473" y="190.687988" stroke="rgb(150.96,150.96,150.96)" stroke-opacity="0" stroke-width="0" />
						<rect id="Rectangle Copy 14" width="2.000000" height="56.000000" x="134.959473" y="190.687988" fill="rgb(25,24,38)" />
						<rect id="Rectangle Copy 14" width="2.000000" height="56.000000" x="134.959473" y="190.687988" stroke="rgb(150.96,150.96,150.96)" stroke-opacity="0" stroke-width="0" />
						<rect id="Rectangle Copy 19" width="2.000000" height="56.000000" x="144.959473" y="190.687988" fill="rgb(25,24,38)" />
						<rect id="Rectangle Copy 19" width="2.000000" height="56.000000" x="144.959473" y="190.687988" stroke="rgb(150.96,150.96,150.96)" stroke-opacity="0" stroke-width="0" />
						<rect id="Rectangle Copy 18" width="2.000000" height="56.000000" x="154.959473" y="190.687988" fill="rgb(25,24,38)" />
						<rect id="Rectangle Copy 18" width="2.000000" height="56.000000" x="154.959473" y="190.687988" stroke="rgb(150.96,150.96,150.96)" stroke-opacity="0" stroke-width="0" />
						<rect id="Rectangle Copy 17" width="2.000000" height="56.000000" x="164.959473" y="190.687988" fill="rgb(25,24,38)" />
						<rect id="Rectangle Copy 17" width="2.000000" height="56.000000" x="164.959473" y="190.687988" stroke="rgb(150.96,150.96,150.96)" stroke-opacity="0" stroke-width="0" />
						<rect id="Rectangle Copy 22" width="2.000000" height="56.000000" x="174.959473" y="190.687988" fill="rgb(25,24,38)" />
						<rect id="Rectangle Copy 22" width="2.000000" height="56.000000" x="174.959473" y="190.687988" stroke="rgb(150.96,150.96,150.96)" stroke-opacity="0" stroke-width="0" />
						<rect id="Rectangle Copy 21" width="2.000000" height="52.000000" x="184.959473" y="194.687988" fill="rgb(25,24,38)" />
						<rect id="Rectangle Copy 21" width="2.000000" height="52.000000" x="184.959473" y="194.687988" stroke="rgb(150.96,150.96,150.96)" stroke-opacity="0" stroke-width="0" />
						<rect id="Rectangle Copy 20" width="2.000000" height="65.000000" x="194.959473" y="181.687988" fill="rgb(25,24,38)" />
						<rect id="Rectangle Copy 20" width="2.000000" height="65.000000" x="194.959473" y="181.687988" stroke="rgb(150.96,150.96,150.96)" stroke-opacity="0" stroke-width="0" />
						<rect id="Rectangle Copy 25" width="2.000000" height="87.000000" x="204.959473" y="159.687988" fill="rgb(25,24,38)" />
						<rect id="Rectangle Copy 25" width="2.000000" height="87.000000" x="204.959473" y="159.687988" stroke="rgb(150.96,150.96,150.96)" stroke-opacity="0" stroke-width="0" />
						<rect id="Rectangle Copy 24" width="2.000000" height="100.000000" x="214.959473" y="146.687988" fill="rgb(25,24,38)" />
						<rect id="Rectangle Copy 24" width="2.000000" height="100.000000" x="214.959473" y="146.687988" stroke="rgb(150.96,150.96,150.96)" stroke-opacity="0" stroke-width="0" />
						<circle id="Oval" cx="216" cy="145" r="5" fill="rgb(101.789,225.829,219.692)" />
						<circle id="Oval" cx="216" cy="145" r="5" stroke="rgb(150.96,150.96,150.96)" stroke-opacity="0" stroke-width="0" />
						<rect id="Rectangle Copy 23" width="2.000000" height="92.000000" x="224.959473" y="154.687988" fill="rgb(25,24,38)" />
						<rect id="Rectangle Copy 23" width="2.000000" height="92.000000" x="224.959473" y="154.687988" stroke="rgb(150.96,150.96,150.96)" stroke-opacity="0" stroke-width="0" />
					</g>
					<path id="Path 4" d="M49.2715 72.688L39.9595 82L49.2715 91.312" fill="rgb(215.985,215.985,215.985)" fill-opacity="0" fill-rule="evenodd" />
					<path id="Path 4" d="M49.2715 72.688L39.9595 82L49.2715 91.312" fill-rule="evenodd" stroke="rgb(25,24,38)" stroke-width="2" />
				</g>
			</g>
		</g>
	</g>
</svg>
